<?xml version="1.0" standalone="no"?>
<!DOCTYPE svg PUBLIC "-//W3C//DTD SVG 1.1//EN" "http://www.w3.org/Graphics/SVG/1.1/DTD/svg11.dtd">
<svg version="1.1" xmlns="http://www.w3.org/2000/svg" viewBox="0 0 109.01107204470622 121.67774284837287" width="109.01107204470622" height="121.67774284837287"><!-- svg-source:excalidraw --><metadata></metadata><defs><style class="style-fonts">
      </style></defs><rect x="0" y="0" width="109.01107204470622" height="121.67774284837287" fill="#ffffff"></rect><g stroke-linecap="round" transform="translate(10 41.92865958140692) rotate(0 19.60021458465576 18.295506341667533)"><path d="M15.36 0.48 C19.2 -0.62, 24.82 -0.01, 28.58 1.81 C32.33 3.63, 36.34 7.72, 37.88 11.4 C39.42 15.08, 39.19 20.11, 37.81 23.87 C36.42 27.63, 33.12 31.95, 29.56 33.97 C26 35.99, 20.63 36.56, 16.47 35.97 C12.3 35.37, 7.29 33.18, 4.55 30.4 C1.81 27.62, 0.11 23.11, 0.04 19.29 C-0.03 15.47, 1.39 10.61, 4.14 7.48 C6.9 4.35, 14.28 1.59, 16.57 0.49 C18.86 -0.61, 17.84 0.55, 17.87 0.88 M17.82 0.58 C21.81 -0.11, 26.72 1.31, 30.18 3.35 C33.63 5.38, 37.3 8.98, 38.58 12.79 C39.85 16.6, 39.59 22.47, 37.81 26.18 C36.04 29.89, 31.73 33.41, 27.93 35.04 C24.12 36.67, 18.98 37.03, 14.98 35.97 C10.98 34.9, 6.48 31.85, 3.94 28.65 C1.4 25.45, -0.56 20.62, -0.27 16.75 C0.02 12.89, 2.69 8.1, 5.69 5.45 C8.69 2.8, 15.69 1.59, 17.73 0.85 C19.76 0.1, 17.91 0.89, 17.91 0.97" stroke="none" stroke-width="0" fill="#00f5d4"></path><path d="M21.09 -0.32 C25.09 -0.26, 30 2.07, 33.03 4.93 C36.05 7.79, 38.73 12.81, 39.23 16.82 C39.73 20.83, 38.36 25.83, 36.01 28.99 C33.66 32.15, 29.23 34.86, 25.13 35.79 C21.04 36.72, 15.32 36.21, 11.46 34.56 C7.59 32.91, 3.84 29.31, 1.96 25.9 C0.08 22.48, -0.91 17.76, 0.17 14.06 C1.25 10.36, 4.84 6.07, 8.44 3.69 C12.05 1.32, 19.51 0.39, 21.82 -0.18 C24.13 -0.76, 22.43 -0.03, 22.32 0.25 M14.94 0.19 C18.71 -1.01, 24.85 -0.08, 28.55 1.68 C32.25 3.45, 35.45 7.05, 37.13 10.8 C38.82 14.54, 39.93 20.2, 38.64 24.14 C37.35 28.09, 32.97 32.34, 29.37 34.49 C25.77 36.64, 21.12 37.68, 17.05 37.04 C12.97 36.4, 7.7 33.66, 4.93 30.65 C2.15 27.65, 0.49 22.97, 0.38 18.99 C0.26 15.01, 1.77 9.81, 4.21 6.78 C6.66 3.75, 13.26 1.86, 15.05 0.83 C16.83 -0.19, 14.87 0.33, 14.93 0.62" stroke="#00f5d4" stroke-width="2" fill="none"></path></g><g stroke-linecap="round" transform="translate(65.0487060791412 79.26893634152839) rotate(0 16.672670261111932 16.204403253422015)"><path d="M15.66 -0.42 C19.08 -0.78, 24.09 1.34, 26.89 3.56 C29.69 5.77, 31.77 9.56, 32.48 12.88 C33.19 16.2, 32.64 20.37, 31.13 23.46 C29.61 26.55, 26.61 29.98, 23.38 31.41 C20.15 32.84, 15.09 33.08, 11.73 32.03 C8.36 30.99, 5.11 28.01, 3.18 25.15 C1.25 22.3, -0.12 18.27, 0.14 14.88 C0.41 11.5, 2.05 7.26, 4.78 4.82 C7.51 2.38, 14.4 1.06, 16.5 0.26 C18.61 -0.54, 17.46 -0.3, 17.41 -0.01 M19.35 -0.2 C22.62 0.09, 26.94 3.36, 29.26 6.01 C31.59 8.65, 33.21 12.18, 33.3 15.66 C33.39 19.14, 32.11 24.06, 29.81 26.88 C27.52 29.71, 23.06 31.93, 19.52 32.6 C15.98 33.26, 11.61 32.61, 8.59 30.88 C5.57 29.16, 2.74 25.51, 1.42 22.25 C0.09 19, -0.45 14.62, 0.63 11.33 C1.71 8.04, 4.85 4.47, 7.88 2.54 C10.9 0.61, 16.76 0.2, 18.77 -0.25 C20.78 -0.7, 19.88 -0.42, 19.93 -0.16" stroke="none" stroke-width="0" fill="#00f5d4"></path><path d="M17.96 -0.14 C21.41 -0.13, 25.62 2.46, 28.16 4.81 C30.71 7.16, 32.89 10.55, 33.25 13.97 C33.62 17.4, 32.39 22.34, 30.34 25.36 C28.29 28.38, 24.38 31.09, 20.97 32.1 C17.56 33.12, 13.15 32.83, 9.9 31.45 C6.65 30.06, 3.04 27, 1.47 23.79 C-0.11 20.58, -0.41 15.6, 0.47 12.17 C1.34 8.75, 3.67 5.19, 6.72 3.23 C9.77 1.27, 16.82 0.89, 18.76 0.43 C20.7 -0.04, 18.54 0.19, 18.37 0.44 M14.05 0.83 C17.34 0.02, 22.06 0.54, 25.03 2.14 C28 3.75, 30.82 7.01, 31.89 10.48 C32.95 13.95, 32.6 19.52, 31.44 22.98 C30.28 26.44, 28.02 29.77, 24.93 31.26 C21.85 32.75, 16.49 32.81, 12.9 31.91 C9.31 31.01, 5.55 28.47, 3.4 25.87 C1.24 23.27, -0.04 19.8, -0.01 16.3 C0.02 12.8, 1.23 7.5, 3.57 4.86 C5.91 2.23, 12.12 1.19, 14.02 0.49 C15.93 -0.2, 14.89 0.44, 15 0.69" stroke="#00f5d4" stroke-width="2" fill="none"></path></g><g stroke-linecap="round"><g transform="translate(69.4136231024695 88.02559360879559) rotate(0 -12.364476505267191 -8.270784934925132)"><path d="M0.44 -0.44 C-3.68 -3.14, -20.63 -13.49, -24.84 -16.22 M0 0.52 C-4.16 -2.33, -20.98 -14.25, -25.16 -17.06" stroke="#00f5d4" stroke-width="2" fill="none"></path></g><g transform="translate(69.4136231024695 88.02559360879559) rotate(0 -12.364476505267191 -8.270784934925132)"><path d="M-10.67 -13.26 C-15.17 -13.93, -18.13 -14.98, -25.16 -17.06 M-10.67 -13.26 C-14.24 -14.21, -17.56 -15.49, -25.16 -17.06" stroke="#00f5d4" stroke-width="2" fill="none"></path></g><g transform="translate(69.4136231024695 88.02559360879559) rotate(0 -12.364476505267191 -8.270784934925132)"><path d="M-16.5 -4.83 C-19.43 -7.79, -20.83 -11.11, -25.16 -17.06 M-16.5 -4.83 C-18.63 -7.81, -20.55 -11.13, -25.16 -17.06" stroke="#00f5d4" stroke-width="2" fill="none"></path></g></g><mask></mask><g stroke-linecap="round" transform="translate(65.66573152248225 10) rotate(0 16.672670261111932 16.204403253422015)"><path d="M19.79 0.36 C23.22 0.77, 27.78 3.57, 30.04 6.29 C32.3 9.01, 33.42 13.16, 33.35 16.67 C33.28 20.18, 31.98 24.76, 29.6 27.34 C27.22 29.92, 22.65 31.78, 19.09 32.17 C15.52 32.55, 11.25 31.44, 8.22 29.67 C5.2 27.91, 2.17 24.75, 0.96 21.58 C-0.25 18.41, -0.33 13.89, 0.95 10.67 C2.24 7.45, 5.41 3.99, 8.68 2.26 C11.94 0.53, 18.49 0.49, 20.56 0.28 C22.62 0.06, 21.06 0.72, 21.07 0.97 M15.04 0.03 C18.31 -0.4, 23.21 0.87, 26.24 2.81 C29.28 4.75, 32.37 8.38, 33.25 11.68 C34.12 14.98, 33 19.34, 31.47 22.61 C29.93 25.89, 27.09 29.74, 24.04 31.35 C20.99 32.96, 16.59 33.23, 13.18 32.27 C9.77 31.31, 5.7 28.38, 3.56 25.59 C1.43 22.8, 0.16 18.89, 0.36 15.54 C0.56 12.19, 2.27 8.15, 4.76 5.47 C7.26 2.79, 13.54 0.33, 15.33 -0.56 C17.12 -1.45, 15.47 -0.19, 15.51 0.12" stroke="none" stroke-width="0" fill="#00f5d4"></path><path d="M15.62 -0.47 C18.97 -0.88, 23.54 0.91, 26.38 3.08 C29.21 5.24, 31.79 9.1, 32.64 12.52 C33.5 15.95, 33.13 20.59, 31.5 23.62 C29.86 26.65, 26.12 29.39, 22.81 30.73 C19.5 32.06, 14.94 32.49, 11.62 31.62 C8.3 30.74, 4.89 28.35, 2.9 25.5 C0.91 22.64, -0.79 17.98, -0.31 14.51 C0.17 11.05, 2.92 7.13, 5.75 4.69 C8.59 2.26, 14.73 0.63, 16.69 -0.1 C18.65 -0.83, 17.42 -0.04, 17.5 0.32 M16.28 -0.21 C19.77 -0.63, 24.46 0.87, 27.18 3.03 C29.89 5.19, 31.96 9.28, 32.56 12.77 C33.17 16.26, 32.45 20.96, 30.84 23.95 C29.22 26.95, 25.96 29.5, 22.88 30.73 C19.81 31.96, 15.69 32.34, 12.38 31.32 C9.07 30.29, 5.15 27.44, 3 24.57 C0.85 21.7, -0.79 17.4, -0.49 14.08 C-0.19 10.76, 2.15 7.11, 4.81 4.65 C7.46 2.2, 13.68 0.15, 15.44 -0.64 C17.21 -1.42, 15.24 -0.38, 15.39 -0.04" stroke="#00f5d4" stroke-width="2" fill="none"></path></g><g stroke-linecap="round"><g transform="translate(44.83875451465667 48.88981330407114) rotate(0 13.218762944139485 -6.788047488482562)"><path d="M0.29 -0.18 C4.52 -2.22, 21.39 -10.48, 25.64 -12.48 M-0.23 -0.75 C4.16 -2.95, 22.41 -11.34, 26.67 -13.39" stroke="#00f5d4" stroke-width="2" fill="none"></path></g><g transform="translate(44.83875451465667 48.88981330407114) rotate(0 13.218762944139485 -6.788047488482562)"><path d="M16.47 -3.13 C19.75 -7.21, 23.63 -10.55, 26.67 -13.39 M16.47 -3.13 C19.98 -7.22, 23.89 -10.72, 26.67 -13.39" stroke="#00f5d4" stroke-width="2" fill="none"></path></g><g transform="translate(44.83875451465667 48.88981330407114) rotate(0 13.218762944139485 -6.788047488482562)"><path d="M12.26 -12.09 C16.96 -13.11, 22.29 -13.38, 26.67 -13.39 M12.26 -12.09 C17.33 -12.87, 22.8 -13.06, 26.67 -13.39" stroke="#00f5d4" stroke-width="2" fill="none"></path></g></g><mask></mask></svg>